<?xml version="1.0" encoding="UTF-8"?>
<svg xmlns="http://www.w3.org/2000/svg" xmlns:xlink="http://www.w3.org/1999/xlink" width="25px" height="25px" viewBox="0 0 25 25" version="1.1">
<defs>
<clipPath id="clip1">
  <path d="M 18 6 L 25 6 L 25 22 L 18 22 Z M 18 6 "/>
</clipPath>
<clipPath id="clip2">
  <path d="M 12.507812 0 C 19.417969 0 25.015625 5.601562 25.015625 12.507812 C 25.015625 19.417969 19.417969 25.015625 12.507812 25.015625 C 5.601562 25.015625 0 19.417969 0 12.507812 C 0 5.601562 5.601562 0 12.507812 0 Z M 12.507812 0 "/>
</clipPath>
<clipPath id="clip3">
  <path d="M 12 5 L 25 5 L 25 21 L 12 21 Z M 12 5 "/>
</clipPath>
<clipPath id="clip4">
  <path d="M 12.507812 0 C 19.417969 0 25.015625 5.601562 25.015625 12.507812 C 25.015625 19.417969 19.417969 25.015625 12.507812 25.015625 C 5.601562 25.015625 0 19.417969 0 12.507812 C 0 5.601562 5.601562 0 12.507812 0 Z M 12.507812 0 "/>
</clipPath>
<clipPath id="clip5">
  <path d="M 18 17 L 25 17 L 25 25 L 18 25 Z M 18 17 "/>
</clipPath>
<clipPath id="clip6">
  <path d="M 12.507812 0 C 19.417969 0 25.015625 5.601562 25.015625 12.507812 C 25.015625 19.417969 19.417969 25.015625 12.507812 25.015625 C 5.601562 25.015625 0 19.417969 0 12.507812 C 0 5.601562 5.601562 0 12.507812 0 Z M 12.507812 0 "/>
</clipPath>
<clipPath id="clip7">
  <path d="M 17 18 L 25 18 L 25 25 L 17 25 Z M 17 18 "/>
</clipPath>
<clipPath id="clip8">
  <path d="M 12.507812 0 C 19.417969 0 25.015625 5.601562 25.015625 12.507812 C 25.015625 19.417969 19.417969 25.015625 12.507812 25.015625 C 5.601562 25.015625 0 19.417969 0 12.507812 C 0 5.601562 5.601562 0 12.507812 0 Z M 12.507812 0 "/>
</clipPath>
<clipPath id="clip9">
  <path d="M 12 18 L 25 18 L 25 25 L 12 25 Z M 12 18 "/>
</clipPath>
<clipPath id="clip10">
  <path d="M 12.507812 0 C 19.417969 0 25.015625 5.601562 25.015625 12.507812 C 25.015625 19.417969 19.417969 25.015625 12.507812 25.015625 C 5.601562 25.015625 0 19.417969 0 12.507812 C 0 5.601562 5.601562 0 12.507812 0 Z M 12.507812 0 "/>
</clipPath>
<clipPath id="clip11">
  <path d="M 7 18 L 25 18 L 25 25 L 7 25 Z M 7 18 "/>
</clipPath>
<clipPath id="clip12">
  <path d="M 12.507812 0 C 19.417969 0 25.015625 5.601562 25.015625 12.507812 C 25.015625 19.417969 19.417969 25.015625 12.507812 25.015625 C 5.601562 25.015625 0 19.417969 0 12.507812 C 0 5.601562 5.601562 0 12.507812 0 Z M 12.507812 0 "/>
</clipPath>
<clipPath id="clip13">
  <path d="M 12 19 L 25 19 L 25 25 L 12 25 Z M 12 19 "/>
</clipPath>
<clipPath id="clip14">
  <path d="M 12.507812 0 C 19.417969 0 25.015625 5.601562 25.015625 12.507812 C 25.015625 19.417969 19.417969 25.015625 12.507812 25.015625 C 5.601562 25.015625 0 19.417969 0 12.507812 C 0 5.601562 5.601562 0 12.507812 0 Z M 12.507812 0 "/>
</clipPath>
<clipPath id="clip15">
  <path d="M 6 18 L 22 18 L 22 25 L 6 25 Z M 6 18 "/>
</clipPath>
<clipPath id="clip16">
  <path d="M 12.507812 0 C 19.417969 0 25.015625 5.601562 25.015625 12.507812 C 25.015625 19.417969 19.417969 25.015625 12.507812 25.015625 C 5.601562 25.015625 0 19.417969 0 12.507812 C 0 5.601562 5.601562 0 12.507812 0 Z M 12.507812 0 "/>
</clipPath>
<clipPath id="clip17">
  <path d="M 19 7 L 25 7 L 25 25 L 19 25 Z M 19 7 "/>
</clipPath>
<clipPath id="clip18">
  <path d="M 12.507812 0 C 19.417969 0 25.015625 5.601562 25.015625 12.507812 C 25.015625 19.417969 19.417969 25.015625 12.507812 25.015625 C 5.601562 25.015625 0 19.417969 0 12.507812 C 0 5.601562 5.601562 0 12.507812 0 Z M 12.507812 0 "/>
</clipPath>
<clipPath id="clip19">
  <path d="M 5 5 L 20 5 L 20 20 L 5 20 Z M 5 5 "/>
</clipPath>
<clipPath id="clip20">
  <path d="M 12.507812 0 C 19.417969 0 25.015625 5.601562 25.015625 12.507812 C 25.015625 19.417969 19.417969 25.015625 12.507812 25.015625 C 5.601562 25.015625 0 19.417969 0 12.507812 C 0 5.601562 5.601562 0 12.507812 0 Z M 12.507812 0 "/>
</clipPath>
</defs>
<g id="surface1">
<path style=" stroke:none;fill-rule:evenodd;fill:rgb(69.01961%,74.509805%,77.254903%);fill-opacity:1;" d="M 12.507812 0 C 19.417969 0 25.015625 5.601562 25.015625 12.507812 C 25.015625 19.417969 19.417969 25.015625 12.507812 25.015625 C 5.601562 25.015625 0 19.417969 0 12.507812 C 0 5.601562 5.601562 0 12.507812 0 Z M 12.507812 0 "/>
<g clip-path="url(#clip1)" clip-rule="nonzero">
<g clip-path="url(#clip2)" clip-rule="evenodd">
<path style=" stroke:none;fill-rule:evenodd;fill:rgb(47.058824%,56.470591%,61.176473%);fill-opacity:1;" d="M 18.761719 6.832031 L 32.636719 20.707031 L 32.660156 20.734375 L 32.679688 20.765625 L 32.703125 20.792969 L 32.78125 20.917969 L 32.800781 20.953125 L 32.816406 20.984375 L 32.832031 21.019531 L 32.847656 21.050781 L 32.863281 21.085938 L 32.910156 21.226562 L 32.925781 21.296875 L 32.933594 21.335938 L 32.941406 21.371094 L 32.949219 21.410156 L 32.953125 21.445312 L 32.957031 21.484375 L 32.957031 21.519531 L 32.960938 21.558594 L 32.960938 21.597656 L 19.085938 7.722656 L 19.085938 7.648438 L 19.078125 7.570312 L 19.074219 7.535156 L 19.066406 7.496094 L 19.0625 7.460938 L 19.054688 7.421875 L 19.042969 7.386719 L 19.035156 7.351562 L 18.988281 7.210938 L 18.972656 7.175781 L 18.957031 7.144531 L 18.941406 7.109375 L 18.925781 7.078125 L 18.90625 7.042969 L 18.828125 6.917969 L 18.804688 6.890625 L 18.785156 6.859375 Z M 18.761719 6.832031 "/>
</g>
</g>
<g clip-path="url(#clip3)" clip-rule="nonzero">
<g clip-path="url(#clip4)" clip-rule="evenodd">
<path style=" stroke:none;fill-rule:evenodd;fill:rgb(47.058824%,56.470591%,61.176473%);fill-opacity:1;" d="M 12.792969 5.667969 L 26.667969 19.542969 L 26.667969 20.105469 L 12.792969 6.230469 Z M 12.792969 5.667969 "/>
</g>
</g>
<g clip-path="url(#clip5)" clip-rule="nonzero">
<g clip-path="url(#clip6)" clip-rule="evenodd">
<path style=" stroke:none;fill-rule:evenodd;fill:rgb(47.058824%,56.470591%,61.176473%);fill-opacity:1;" d="M 19.085938 17.292969 L 32.960938 31.167969 L 32.960938 31.207031 L 32.957031 31.246094 L 32.957031 31.28125 L 32.953125 31.320312 L 32.949219 31.355469 L 32.941406 31.394531 L 32.933594 31.429688 L 32.925781 31.46875 L 32.910156 31.539062 L 32.863281 31.679688 L 32.847656 31.714844 L 32.832031 31.746094 L 32.816406 31.78125 L 32.800781 31.8125 L 32.78125 31.847656 L 32.703125 31.972656 L 32.679688 32 L 32.660156 32.03125 L 32.636719 32.058594 L 32.613281 32.089844 L 32.585938 32.117188 L 32.5625 32.144531 L 32.535156 32.171875 L 32.507812 32.195312 L 32.480469 32.222656 L 18.605469 18.347656 L 18.632812 18.320312 L 18.660156 18.296875 L 18.6875 18.269531 L 18.710938 18.242188 L 18.738281 18.214844 L 18.761719 18.183594 L 18.785156 18.15625 L 18.804688 18.125 L 18.828125 18.097656 L 18.90625 17.972656 L 18.925781 17.9375 L 18.941406 17.90625 L 18.957031 17.871094 L 18.972656 17.839844 L 18.988281 17.804688 L 19.035156 17.664062 L 19.042969 17.628906 L 19.054688 17.59375 L 19.0625 17.554688 L 19.066406 17.519531 L 19.074219 17.484375 L 19.082031 17.40625 L 19.085938 17.371094 Z M 19.085938 17.292969 "/>
</g>
</g>
<g clip-path="url(#clip7)" clip-rule="nonzero">
<g clip-path="url(#clip8)" clip-rule="evenodd">
<path style=" stroke:none;fill-rule:evenodd;fill:rgb(47.058824%,56.470591%,61.176473%);fill-opacity:1;" d="M 18.605469 18.347656 L 32.480469 32.222656 L 32.453125 32.246094 L 32.425781 32.273438 L 32.363281 32.320312 L 32.335938 32.339844 L 32.304688 32.363281 L 32.269531 32.382812 L 32.238281 32.40625 L 32.207031 32.425781 L 32.171875 32.445312 L 32.140625 32.460938 L 32.105469 32.480469 L 32.035156 32.511719 L 31.996094 32.527344 L 31.925781 32.558594 L 31.847656 32.582031 L 31.8125 32.59375 L 31.773438 32.605469 L 31.65625 32.628906 L 31.613281 32.636719 L 31.574219 32.644531 L 31.535156 32.648438 L 31.492188 32.652344 L 31.453125 32.65625 L 31.410156 32.660156 L 31.328125 32.660156 L 17.453125 18.785156 L 17.535156 18.785156 L 17.578125 18.78125 L 17.617188 18.777344 L 17.660156 18.773438 L 17.699219 18.769531 L 17.738281 18.761719 L 17.78125 18.753906 L 17.898438 18.730469 L 17.976562 18.707031 L 18.011719 18.695312 L 18.050781 18.683594 L 18.085938 18.667969 L 18.125 18.652344 L 18.230469 18.605469 L 18.265625 18.585938 L 18.296875 18.570312 L 18.332031 18.550781 L 18.363281 18.53125 L 18.398438 18.511719 L 18.460938 18.464844 L 18.488281 18.445312 L 18.550781 18.398438 L 18.578125 18.371094 Z M 18.605469 18.347656 "/>
</g>
</g>
<g clip-path="url(#clip9)" clip-rule="nonzero">
<g clip-path="url(#clip10)" clip-rule="evenodd">
<path style=" stroke:none;fill-rule:evenodd;fill:rgb(47.058824%,56.470591%,61.176473%);fill-opacity:1;" d="M 17.453125 18.785156 L 31.328125 32.660156 L 26.667969 32.660156 L 12.792969 18.785156 Z M 17.453125 18.785156 "/>
<path style=" stroke:none;fill-rule:evenodd;fill:rgb(47.058824%,56.470591%,61.176473%);fill-opacity:1;" d="M 12.792969 18.785156 L 26.667969 32.660156 L 26.667969 33.222656 L 12.792969 19.347656 Z M 12.792969 18.785156 "/>
</g>
</g>
<g clip-path="url(#clip11)" clip-rule="nonzero">
<g clip-path="url(#clip12)" clip-rule="evenodd">
<path style=" stroke:none;fill-rule:evenodd;fill:rgb(47.058824%,56.470591%,61.176473%);fill-opacity:1;" d="M 12.222656 18.785156 L 26.097656 32.660156 L 21.4375 32.660156 L 7.566406 18.785156 Z M 12.222656 18.785156 "/>
</g>
</g>
<g clip-path="url(#clip13)" clip-rule="nonzero">
<g clip-path="url(#clip14)" clip-rule="evenodd">
<path style=" stroke:none;fill-rule:evenodd;fill:rgb(47.058824%,56.470591%,61.176473%);fill-opacity:1;" d="M 12.792969 19.347656 L 26.667969 33.222656 L 26.097656 33.222656 L 12.222656 19.347656 Z M 12.792969 19.347656 "/>
</g>
</g>
<g clip-path="url(#clip15)" clip-rule="nonzero">
<g clip-path="url(#clip16)" clip-rule="evenodd">
<path style=" stroke:none;fill-rule:evenodd;fill:rgb(47.058824%,56.470591%,61.176473%);fill-opacity:1;" d="M 7.566406 18.785156 L 21.4375 32.660156 L 21.355469 32.660156 L 21.3125 32.65625 L 21.273438 32.652344 L 21.230469 32.648438 L 21.191406 32.644531 L 21.152344 32.636719 L 21.109375 32.628906 L 20.992188 32.605469 L 20.953125 32.59375 L 20.917969 32.582031 L 20.839844 32.558594 L 20.769531 32.527344 L 20.730469 32.511719 L 20.660156 32.480469 L 20.628906 32.460938 L 20.59375 32.445312 L 20.558594 32.425781 L 20.527344 32.40625 L 20.496094 32.382812 L 20.460938 32.363281 L 20.429688 32.339844 L 20.402344 32.320312 L 20.339844 32.273438 L 6.464844 18.398438 L 6.527344 18.445312 L 6.558594 18.464844 L 6.585938 18.488281 L 6.621094 18.511719 L 6.683594 18.550781 L 6.71875 18.570312 L 6.753906 18.585938 L 6.785156 18.605469 L 6.855469 18.636719 L 6.894531 18.652344 L 6.964844 18.683594 L 7.042969 18.707031 L 7.078125 18.71875 L 7.117188 18.730469 L 7.234375 18.753906 L 7.277344 18.761719 L 7.316406 18.769531 L 7.355469 18.773438 L 7.398438 18.777344 L 7.4375 18.78125 L 7.480469 18.785156 Z M 7.566406 18.785156 "/>
</g>
</g>
<g clip-path="url(#clip17)" clip-rule="nonzero">
<g clip-path="url(#clip18)" clip-rule="evenodd">
<path style=" stroke:none;fill-rule:evenodd;fill:rgb(47.058824%,56.470591%,61.176473%);fill-opacity:1;" d="M 19.085938 7.722656 L 32.960938 21.597656 L 32.960938 31.167969 L 19.085938 17.292969 Z M 19.085938 7.722656 "/>
</g>
</g>
<g clip-path="url(#clip19)" clip-rule="nonzero">
<g clip-path="url(#clip20)" clip-rule="evenodd">
<path style=" stroke:none;fill-rule:evenodd;fill:rgb(47.058824%,56.470591%,61.176473%);fill-opacity:1;" d="M 12.792969 6.230469 L 17.453125 6.230469 C 17.902344 6.230469 18.308594 6.398438 18.605469 6.667969 C 18.902344 6.9375 19.085938 7.3125 19.085938 7.722656 L 19.085938 17.292969 C 19.085938 17.703125 18.902344 18.078125 18.605469 18.347656 C 18.308594 18.617188 17.902344 18.785156 17.453125 18.785156 L 12.792969 18.785156 L 12.792969 19.347656 L 12.222656 19.347656 L 12.222656 18.785156 L 7.566406 18.785156 C 7.113281 18.785156 6.707031 18.617188 6.410156 18.347656 C 6.113281 18.078125 5.929688 17.703125 5.929688 17.292969 L 5.929688 7.722656 C 5.929688 7.3125 6.113281 6.9375 6.410156 6.667969 C 6.707031 6.398438 7.113281 6.230469 7.566406 6.230469 L 12.222656 6.230469 L 12.222656 5.667969 L 12.792969 5.667969 Z M 12.792969 6.230469 "/>
</g>
</g>
<path style=" stroke:none;fill-rule:evenodd;fill:rgb(41.568628%,10.588235%,60.392159%);fill-opacity:1;" d="M 12.507812 6.230469 L 17.453125 6.230469 C 17.902344 6.230469 18.308594 6.398438 18.605469 6.667969 C 18.902344 6.9375 19.085938 7.3125 19.085938 7.722656 L 19.085938 17.292969 C 19.085938 17.703125 18.902344 18.078125 18.605469 18.347656 C 18.308594 18.617188 17.902344 18.785156 17.453125 18.785156 L 12.507812 18.785156 Z M 12.507812 6.230469 "/>
<path style=" stroke:none;fill-rule:evenodd;fill:rgb(67.058825%,27.843139%,73.725492%);fill-opacity:1;" d="M 7.566406 6.230469 L 12.507812 6.230469 L 12.507812 18.785156 L 7.566406 18.785156 C 7.113281 18.785156 6.707031 18.617188 6.410156 18.347656 C 6.113281 18.078125 5.929688 17.703125 5.929688 17.292969 L 5.929688 7.722656 C 5.929688 7.3125 6.113281 6.9375 6.410156 6.667969 C 6.707031 6.398438 7.113281 6.230469 7.566406 6.230469 Z M 7.566406 6.230469 "/>
<path style=" stroke:none;fill-rule:evenodd;fill:rgb(41.568628%,10.588235%,60.392159%);fill-opacity:1;" d="M 8.257812 9.882812 L 10.679688 12.304688 L 10.878906 12.507812 L 10.679688 12.710938 L 8.257812 15.132812 L 7.851562 14.730469 L 10.074219 12.507812 L 7.851562 10.285156 Z M 8.257812 9.882812 "/>
<path style=" stroke:none;fill-rule:evenodd;fill:rgb(72.941178%,40.784314%,78.431374%);fill-opacity:1;" d="M 17.164062 10.285156 L 14.941406 12.507812 L 17.164062 14.730469 L 16.761719 15.132812 L 14.335938 12.710938 L 14.136719 12.507812 L 14.335938 12.304688 L 16.761719 9.882812 Z M 17.164062 10.285156 "/>
<path style=" stroke:none;fill-rule:nonzero;fill:rgb(29.019609%,7.843138%,54.901963%);fill-opacity:1;" d="M 12.792969 5.667969 L 12.792969 19.347656 L 12.222656 19.347656 L 12.222656 5.667969 Z M 12.792969 5.667969 "/>
</g>
</svg>
